<svg xmlns="http://www.w3.org/2000/svg" viewBox="0 0 420 80" width="420" height="80">
  <defs>
    <style>
      @import url('https://fonts.googleapis.com/css2?family=Poppins:wght@600&amp;display=swap');
    </style>
  </defs>

  <!-- Ticket icon -->
  <g transform="translate(12, 12)">
    <path d="M4,8 L4,22 C4,23.1 4.9,24 6,24 L20,24
             C20,22.34 21.34,21 23,21 C24.66,21 26,22.34 26,24
             L40,24 C41.1,24 42,23.1 42,22 L42,8
             C42,6.9 41.1,6 40,6 L26,6
             C26,7.66 24.66,9 23,9 C21.34,9 20,7.66 20,6
             L6,6 C4.9,6 4,6.9 4,8 Z"
          fill="#1A1A1A" transform="scale(1.2) translate(-3,-3)"/>
  </g>

  <!-- "nearbyweekly" in Poppins -->
  <text x="75" y="52" font-family="'Poppins', sans-serif"
        font-size="34" font-weight="600" fill="#1A1A1A" letter-spacing="-0.5">nearbyweekly</text>

</svg>