<svg xmlns="http://www.w3.org/2000/svg" viewBox="0 0 56 56">
  <rect x="2" y="2" width="52" height="52" rx="12" ry="12" fill="#F5EAE3"/>
  <g transform="translate(-2.079,-3.062) scale(0.06339)">
    <path d="M0 0 C1.81499104 -0.00258676 3.62998151 -0.00560078 5.4449712 -0.0090034 C10.41590569 -0.01703965 15.3868257 -0.01886108 20.35776591 -0.01960087 C25.72529023 -0.02145723 31.09280714 -0.02900731 36.46032715 -0.03573608 C48.18743841 -0.04929417 59.91454624 -0.05533969 71.64166403 -0.05974674 C78.96634207 -0.06251246 86.2910188 -0.06675032 93.61569595 -0.07125092 C113.90389612 -0.08343843 134.19209524 -0.09373997 154.480299 -0.09712601 C156.42636749 -0.09745536 156.42636749 -0.09745536 158.4117505 -0.09779136 C159.71218111 -0.09800964 161.01261171 -0.09822791 162.3524493 -0.09845281 C164.98749916 -0.09889627 167.62254902 -0.09934283 170.25759888 -0.09979248 C171.56466664 -0.10001391 172.8717344 -0.10023534 174.21841027 -0.10046348 C195.40695733 -0.10441322 216.59547005 -0.12187492 237.78400384 -0.145152 C259.54841857 -0.16886848 281.31281606 -0.18132793 303.07724392 -0.18249393 C315.29311123 -0.18341032 327.50893371 -0.18915404 339.72478867 -0.20731354 C350.12385104 -0.22271823 360.52285474 -0.22783263 370.92192636 -0.21957543 C376.2256746 -0.21567078 381.52930466 -0.21658978 386.83303833 -0.23063278 C391.69254686 -0.24338185 396.55184854 -0.24216529 401.41135682 -0.23004207 C403.16496301 -0.22808688 404.91858389 -0.23115524 406.67216943 -0.23988643 C421.30891762 -0.30812323 433.94609258 0.62650391 445.14285278 10.95684814 C454.19300674 20.44800536 455.34358059 31.6445562 455.27175903 44.23028564 C455.26963661 45.64707359 455.26963661 45.64707359 455.26747131 47.09248352 C455.26190639 50.08766952 455.24936045 53.08277876 455.23660278 56.07794189 C455.23158325 58.11765435 455.22702114 60.15736799 455.22293091 62.19708252 C455.21194846 67.17823156 455.19470819 72.15932374 455.17410278 77.14044189 C454.06985962 77.48035156 452.96561646 77.82026123 451.82791138 78.17047119 C450.36775399 78.62259221 448.90763215 79.07482808 447.44754028 79.52716064 C446.721073 79.75045044 445.99460571 79.97374023 445.24612427 80.20379639 C430.69779274 84.72065174 420.22516424 92.87294814 412.92800903 106.46075439 C407.66915875 117.51782422 406.48168701 129.39333153 410.17410278 141.14044189 C416.05588711 155.24082757 423.28582367 164.13416239 437.17410278 171.14044189 C443.06661527 173.38736699 448.9970747 174.92440449 455.17410278 176.14044189 C455.22385808 182.2236006 455.25998957 188.30663858 455.28396606 194.38995361 C455.2939706 196.45572984 455.30757849 198.5214921 455.32498169 200.58721924 C455.3494755 203.57114122 455.36064165 206.55487457 455.36941528 209.53887939 C455.37973785 210.44971283 455.39006042 211.36054626 455.4006958 212.29898071 C455.40271614 224.07043598 453.13438344 235.23061801 444.79910278 244.01544189 C437.11722298 251.06684344 428.58074184 253.4606756 418.28354073 253.39491749 C417.52766802 253.39812397 416.77179531 253.40133044 415.99301738 253.40463409 C413.46973351 253.41291053 410.94668847 253.40701812 408.42340088 253.40113831 C406.59221042 253.40416006 404.76102122 253.40804967 402.92983425 253.41273087 C397.90489463 253.42301645 392.88002632 253.42082761 387.85508084 253.41655028 C382.43302213 253.41408409 377.01098064 253.42309589 371.58892822 253.43058777 C360.96932596 253.44333968 350.34974897 253.44512785 339.73014034 253.44278751 C331.09864371 253.44100476 322.46715475 253.44275305 313.83565903 253.44701195 C311.99322516 253.44790473 311.99322516 253.44790473 310.11357041 253.44881555 C307.618332 253.4500273 305.12309358 253.45124143 302.62785517 253.45245793 C279.89263759 253.46302521 257.15743375 253.46156517 234.42221529 253.45558998 C213.67689665 253.45023281 192.93162052 253.45816375 172.18630981 253.47662354 C148.87095332 253.49732688 125.55562334 253.50803471 102.24025714 253.50404805 C89.8981132 253.50213493 77.55600799 253.5046344 65.213871 253.51876259 C54.70710132 253.53066808 44.2003942 253.53209057 33.69362368 253.51997242 C28.33343324 253.51407798 22.97335729 253.51300003 17.61317444 253.52497482 C12.70434177 253.53581382 7.79571946 253.53275379 2.88689671 253.51871314 C1.11308013 253.51606076 -0.66075284 253.5184497 -2.43455337 253.526449 C-16.34610117 253.58482091 -28.31015195 252.56673606 -38.68527222 242.30059814 C-41.10384907 239.57681992 -42.66193663 237.63232366 -43.82589722 234.14044189 C-44.19398247 233.22271751 -44.19398247 233.22271751 -44.56950378 232.28645325 C-46.97186581 225.95886419 -47.22032136 220.26131055 -47.11886597 213.54278564 C-47.11462112 212.46791397 -47.11037628 211.3930423 -47.10600281 210.28559875 C-47.0893306 206.88278192 -47.05169945 203.48057701 -47.01339722 200.07794189 C-46.99833559 197.75828904 -46.98464978 195.43862683 -46.97238159 193.11895752 C-46.93946474 187.45924669 -46.88938083 181.79988803 -46.82589722 176.14044189 C-45.74558228 175.88867188 -44.66526733 175.63690186 -43.55221558 175.37750244 C-42.11079358 175.03196009 -40.66947407 174.68599 -39.22824097 174.33966064 C-38.51905518 174.17558716 -37.80986938 174.01151367 -37.07919312 173.84246826 C-26.20610996 171.20306715 -16.58221039 165.12383608 -9.82589722 156.14044189 C-1.84619059 142.86139164 1.38587609 130.0786882 -1.47433472 114.64044189 C-3.62903002 107.56862142 -7.15620959 101.83072104 -11.82589722 96.14044189 C-12.39953003 95.43016846 -12.97316284 94.71989502 -13.56417847 93.98809814 C-21.36092673 85.28979869 -32.37421074 80.99033154 -43.59542847 78.64825439 C-45.82589722 78.14044189 -45.82589722 78.14044189 -46.82589722 77.14044189 C-46.939822 75.66465235 -46.98545153 74.18350761 -47.00289917 72.70343018 C-47.01573441 71.75799347 -47.02856964 70.81255676 -47.04179382 69.83847046 C-47.04918076 68.80632416 -47.05656769 67.77417786 -47.06417847 66.71075439 C-47.07225021 65.65065155 -47.08032196 64.59054871 -47.08863831 63.49832153 C-47.10250688 61.2436284 -47.11321654 58.98891403 -47.12106323 56.73419189 C-47.13815206 53.31450166 -47.18199855 49.89580953 -47.22628784 46.47637939 C-47.2364254 44.28367816 -47.24493816 42.0909687 -47.25167847 39.89825439 C-47.26918655 38.8863504 -47.28669464 37.87444641 -47.30473328 36.83187866 C-47.27148379 25.72861065 -43.75869749 16.04144738 -35.82589722 8.14044189 C-33.71588793 6.62906921 -31.62228037 5.32676239 -29.32980347 4.11309814 C-28.8335144 3.79212158 -28.33722534 3.47114502 -27.82589722 3.14044189 C-27.82589722 2.48044189 -27.82589722 1.82044189 -27.82589722 1.14044189 C-18.55047886 -0.0320831 -9.33013261 -0.00533308 0 0 Z " fill="#E74F39" transform="translate(227.82589721679688,430.85955810546875)"/>
    <path d="M0 0 C1.07325283 -0.00352835 1.07325283 -0.00352835 2.16818753 -0.00712797 C4.5781738 -0.01381238 6.98810609 -0.01335992 9.39810085 -0.01294994 C11.13850484 -0.01624892 12.87890807 -0.01997456 14.61931032 -0.02409142 C19.41190305 -0.03411577 24.20448325 -0.03782892 28.99708498 -0.04048073 C34.16224124 -0.04438251 39.32738757 -0.05396095 44.4925375 -0.0626936 C56.97156437 -0.08246183 69.45059205 -0.09252478 81.92963067 -0.10142139 C87.80527481 -0.10580379 93.68091804 -0.11117073 99.55656147 -0.11641026 C119.08705012 -0.13342307 138.61753821 -0.14791736 158.14803314 -0.155159 C163.21702036 -0.15706891 168.28600757 -0.15898924 173.35499477 -0.16094494 C174.6148774 -0.16142868 175.87476003 -0.16191242 177.17282092 -0.16241082 C197.58322075 -0.17071155 217.99356198 -0.19604899 238.40393621 -0.22852562 C259.35567706 -0.26159203 280.30738813 -0.27960739 301.25915521 -0.28280324 C313.02405457 -0.28496874 324.78886847 -0.29372337 336.55374241 -0.31926441 C346.57310562 -0.34096568 356.59236263 -0.34902462 366.61174668 -0.33929763 C371.7229678 -0.33475128 376.83396977 -0.33665883 381.94516087 -0.35605907 C386.62788873 -0.37367935 391.31023738 -0.37270213 395.99296921 -0.35716178 C397.68348293 -0.354784 399.37402282 -0.35911812 401.06449652 -0.37099043 C414.05390692 -0.45653654 425.81247767 1.19814989 435.93238735 10.13422108 C445.94700818 21.74650515 447.09412185 33.30862574 447.0300436 48.06781483 C447.02792118 49.91742565 447.02792118 49.91742565 447.02575588 51.80440235 C447.02017676 55.72686703 447.00762803 59.64927377 446.99488735 63.57172108 C446.98930433 66.23773587 446.98530722 68.90375011 446.98121548 71.56976795 C446.97021416 78.09127196 446.9534968 84.61274238 446.93238735 91.13422108 C446.06936001 91.58080067 445.20633266 92.02738026 444.31715298 92.48749256 C438.29316758 95.65718785 432.60630819 98.72767429 427.43238735 103.19672108 C426.49394985 103.99207264 425.55551235 104.7874242 424.58863735 105.60687733 C422.58647678 107.51187422 420.92808074 109.30665345 419.21363735 111.44281483 C418.46082485 112.33097889 417.70801235 113.21914295 416.93238735 114.13422108 C416.27238735 114.13422108 415.61238735 114.13422108 414.93238735 114.13422108 C414.98459438 112.78843983 414.98459438 112.78843983 415.0378561 111.41547108 C415.41785284 93.89943085 412.77601493 77.39548309 400.19801235 64.16937733 C390.3394866 55.31370161 379.07677117 51.00216683 365.88444614 51.01396656 C364.68784654 51.01259221 363.49124693 51.01121786 362.25838673 51.00980186 C360.95223058 51.01339683 359.64607443 51.01699179 358.30033779 51.02069569 C356.89139014 51.02097584 355.48244235 51.02081246 354.07349479 51.0202446 C350.20460186 51.0199492 346.33573966 51.02588241 342.46685386 51.0328145 C338.28998186 51.03919299 334.11310869 51.03975831 329.93623257 51.04098988 C322.68784628 51.04387902 315.43947017 51.05032487 308.19108868 51.05905628 C297.65019768 51.0716553 287.10931042 51.07769899 276.56841312 51.08198965 C259.3855357 51.08906537 242.20266294 51.0998624 225.0197897 51.11371326 C223.99115692 51.11454108 222.96252414 51.11536889 221.90272067 51.11622179 C212.5536108 51.12377929 203.20450114 51.1315781 193.8553915 51.13942432 C187.69144095 51.14459174 181.52749035 51.14969413 175.3635397 51.15472889 C174.35133016 51.15555702 173.33912063 51.15638514 172.29623808 51.15723836 C155.23711192 51.17106869 138.17798569 51.18075366 121.11885536 51.18763924 C111.57538202 51.19166487 102.03191935 51.19780134 92.48845196 51.20938587 C50.2898597 51.26001748 8.12158264 51.13130223 -34.06761265 50.13422108 C-34.08453753 47.08341634 -34.0969116 44.03270643 -34.10667515 40.98187733 C-34.11191196 40.12227406 -34.11714878 39.26267078 -34.12254429 38.37701893 C-34.1498633 26.99318518 -32.35054969 17.99100951 -24.3996439 9.31390858 C-17.17123323 2.73059634 -9.67014371 0.01353882 0 0 Z " fill="#E74E39" transform="translate(288.06761264801025,364.86577892303467)"/>
    <path d="M0 0 C0.99233807 -0.00352835 0.99233807 -0.00352835 2.00472337 -0.00712797 C4.21314575 -0.01376492 6.42150857 -0.01336137 8.62994003 -0.01294994 C10.23269004 -0.01625185 11.83543923 -0.0199781 13.43818736 -0.02409142 C17.83634865 -0.03408183 22.23449628 -0.03782341 26.6326673 -0.04048073 C31.37854447 -0.04439241 36.12441092 -0.05396992 40.87028122 -0.0626936 C52.32616961 -0.08243027 63.78205885 -0.09251918 75.23795998 -0.10142139 C80.6349246 -0.10580755 86.03188824 -0.11117339 91.42885208 -0.11641026 C109.37160793 -0.13341726 127.31436318 -0.14791222 145.25712585 -0.155159 C149.91034826 -0.15706882 154.56357067 -0.15898917 159.21679306 -0.16094494 C160.37329828 -0.16142868 161.5298035 -0.16191242 162.72135434 -0.16241082 C181.46320209 -0.17071426 200.20498608 -0.19605887 218.94680598 -0.22852562 C238.19458321 -0.2615968 257.44232802 -0.27960768 276.69013381 -0.28280324 C287.49477836 -0.28496792 298.29932984 -0.29371091 309.10394669 -0.31926441 C318.30344895 -0.34097191 327.50283551 -0.34902143 336.70236048 -0.33929763 C341.39437973 -0.33475355 346.08616025 -0.33664569 350.77814674 -0.35605907 C355.07772842 -0.37369506 359.37689727 -0.37268957 363.67648336 -0.35716178 C365.22760861 -0.35478642 366.77876249 -0.35910557 368.32984403 -0.37099043 C380.82427632 -0.46075768 391.73467018 1.22621471 401.09423447 10.13422108 C411.73871167 21.79476201 411.25962671 35.19602216 411.19189072 50.23968983 C411.1897683 52.0475169 411.1897683 52.0475169 411.187603 53.89186573 C411.18205218 57.70184388 411.16950905 61.511761 411.15673447 65.32172108 C411.1517131 67.9213296 411.14715131 70.52093905 411.14306259 73.1205492 C411.13209891 79.45846029 411.11541053 85.79633632 411.09423447 92.13422108 C409.30541711 93.13930909 407.51308751 94.13814844 405.71923447 95.13422108 C404.72150009 95.69109608 403.72376572 96.24797108 402.69579697 96.82172108 C400.09423447 98.13422108 400.09423447 98.13422108 398.09423447 98.13422108 C397.76423447 98.79422108 397.43423447 99.45422108 397.09423447 100.13422108 C396.74489853 98.94183826 396.39556259 97.74945545 396.03564072 96.52093983 C395.57603402 94.95452515 395.11639702 93.38811936 394.65673447 91.82172108 C394.31158798 90.64319569 394.31158798 90.64319569 393.95946884 89.4408617 C393.73710556 88.68353748 393.51474228 87.92621326 393.28564072 87.14593983 C393.08140488 86.44944324 392.87716904 85.75294666 392.66674423 85.03534412 C392.17200834 83.39248342 391.63679828 81.76191251 391.09423447 80.13422108 C390.43423447 79.80422108 389.77423447 79.47422108 389.09423447 79.13422108 C388.70235947 78.28859608 388.31048447 77.44297108 387.90673447 76.57172108 C382.30102958 65.9402118 372.63244977 58.86573788 361.38691044 55.05044651 C353.51083394 52.68852002 345.89708761 52.57057219 337.76298141 52.61523914 C336.14720731 52.60935228 334.5314388 52.60171921 332.91568023 52.59250808 C328.50973975 52.57237314 324.10412356 52.5767687 319.69815838 52.5854156 C314.93416154 52.59038169 310.17024394 52.57224924 305.4062767 52.55699635 C297.16367555 52.53373251 288.92116226 52.52493366 280.67852974 52.52610493 C268.76125241 52.52777722 256.84409188 52.50740835 244.92684577 52.48174962 C225.58949991 52.4407094 206.25217512 52.41736607 186.91479111 52.40521717 C168.13612468 52.39338125 149.3574979 52.37317015 130.57885361 52.34174061 C129.42032773 52.33980451 128.26180186 52.3378684 127.06816914 52.33587363 C121.25588343 52.32610876 115.44359802 52.3161797 109.63131273 52.30616903 C61.45230608 52.22340113 13.27329777 52.16938119 -34.90576553 52.13422108 C-38.24832347 42.10654727 -36.48102068 27.25450642 -32.09326553 17.82172108 C-28.37068154 11.14016006 -23.73987125 6.54373077 -16.90576553 3.13422108 C-16.24576553 3.13422108 -15.58576553 3.13422108 -14.90576553 3.13422108 C-14.57576553 2.47422108 -14.24576553 1.81422108 -13.90576553 1.13422108 C-9.25570911 0.21841851 -4.72909873 0.00721043 0 0 Z " fill="#E74E39" transform="translate(358.90576553344727,294.86577892303467)"/>
    <path d="M0 0 C0.66 0 1.32 0 2 0 C3.01013868 1.66054136 4.00840535 3.32831886 5 5 C16.25886653 16.94959454 30.7315841 22.08305251 46 27 C47.23168676 38.65703544 47.20207151 50.29275055 47 62 C46.98743164 62.7847168 46.97486328 63.56943359 46.96191406 64.37792969 C46.70963112 76.01898549 45.39010778 86.52217605 37.06640625 95.27734375 C30.12974165 101.06008305 22.78591224 103.14097838 13.9375 103.1875 C12.09478516 103.20876953 12.09478516 103.20876953 10.21484375 103.23046875 C7 103 7 103 4 101 C3.99698697 98.11050593 4.15118796 95.42475455 4.4375 92.5625 C5.28256424 81.13952392 3.76610548 73.09744334 -1.31689453 62.7746582 C-8.70072907 47.58776042 -10.92620994 31.45060032 -7 15 C-5.87758174 11.87633386 -4.51799032 8.94873981 -3 6 C-2.4225 4.824375 -1.845 3.64875 -1.25 2.4375 C-0.8375 1.633125 -0.425 0.82875 0 0 Z " fill="#E74F39" transform="translate(689,528)"/>
    <path d="M0 0 C2.34779637 1.11495769 4.13108095 2.11180434 6.125 3.8125 C11.28095815 7.73551163 17.12280346 10.32812114 23.17456055 12.57788086 C23.89185837 12.84507431 24.60915619 13.11226776 25.34819031 13.38755798 C25.89328751 13.58966385 26.4383847 13.79176971 27 14 C27.05101582 21.34656789 27.08586542 28.69308951 27.10986328 36.03979492 C27.11987548 38.535255 27.13348922 41.03070348 27.15087891 43.52612305 C27.17533825 47.1281217 27.18653128 50.72996424 27.1953125 54.33203125 C27.20563507 55.43456741 27.21595764 56.53710358 27.22659302 57.67304993 C27.2281777 68.79553349 26.36172471 79.19793784 19 88 C14.10607211 92.28398086 9.13774351 95.78020126 3 98 C2.9484375 97.07703125 2.896875 96.1540625 2.84375 95.203125 C2.11098056 86.77627643 0.39898543 79.78613282 -2.9375 72 C-11.24219486 52.3916927 -13.42705671 30.30062168 -6 10 C-4.23919989 6.46981052 -2.30675299 3.19869748 0 0 Z " fill="#E64F3A" transform="translate(743,471)"/>
    <path d="M0 0 C0.33 0 0.66 0 1 0 C1 6.6 1 13.2 1 20 C3.27009524 19.99088671 3.27009524 19.99088671 5.58605099 19.98158932 C42.02578979 19.8356157 78.46555065 19.69701434 114.9053491 19.5667524 C119.45195492 19.55049351 123.99856053 19.53417606 128.54516602 19.51782227 C129.4498031 19.51456934 130.35444018 19.51131642 131.28649051 19.50796492 C143.90966419 19.46245337 156.53282229 19.41380873 169.15597399 19.3625737 C190.93598769 19.27417615 212.7160158 19.19206487 234.49609375 19.12109375 C235.34499552 19.11831356 236.19389728 19.11553337 237.06852335 19.11266893 C294.38625307 18.92608171 351.6874411 19.09663028 409 20 C409 20.66 409 21.32 409 22 C374.01833381 23.14567015 339.04010518 23.14955154 304.04454409 23.13529945 C298.20133751 23.1329868 292.35813383 23.13274256 286.51492691 23.13381577 C285.67087326 23.133969 284.82681961 23.13412223 283.95718858 23.13428011 C282.24026997 23.13459997 280.52335135 23.13492418 278.80643274 23.1352527 C262.83626273 23.13808052 246.86609853 23.13486463 230.89592947 23.12945233 C217.33670397 23.12499831 203.77748706 23.12575396 190.21826172 23.13037109 C174.3118676 23.13578528 158.40547855 23.13779423 142.49908364 23.13475883 C140.78555369 23.13444043 139.07202375 23.13412606 137.3584938 23.13381577 C136.51636076 23.13366149 135.67422772 23.13350721 134.8065755 23.13334826 C129.0104724 23.13250249 123.21437269 23.1339213 117.41827011 23.13629532 C77.93277042 23.15111572 38.47726987 22.8864563 -1 22 C-1.02903577 18.89585298 -1.0468107 15.79174091 -1.0625 12.6875 C-1.07087891 11.80642578 -1.07925781 10.92535156 -1.08789062 10.01757812 C-1.09111328 9.17001953 -1.09433594 8.32246094 -1.09765625 7.44921875 C-1.10289307 6.66893311 -1.10812988 5.88864746 -1.11352539 5.0847168 C-1 3 -1 3 0 0 Z " fill="#EC4430" transform="translate(255,393)"/>
    <path d="M0 0 C0.66 0 1.32 0 2 0 C3.01013868 1.66054136 4.00840535 3.32831886 5 5 C16.25886653 16.94959454 30.7315841 22.08305251 46 27 C47.23168676 38.65703544 47.20207151 50.29275055 47 62 C46.98743164 62.7847168 46.97486328 63.56943359 46.96191406 64.37792969 C46.70579209 76.19612944 45.33258613 86.50782774 36.86328125 95.33984375 C33.28773854 98.52559984 29.96687218 100.83260662 25.0625 101.25 C24.381875 101.1675 23.70125 101.085 23 101 C25.55691971 98.9757719 28.19908146 97.28151339 31 95.625 C37.16536932 91.77021436 40.11777264 87.00197341 42 80 C42.50411827 75.95290316 42.62540107 71.91857152 42.73046875 67.84375 C42.770616 66.70087524 42.81076324 65.55800049 42.85212708 64.38049316 C42.9766192 60.75395245 43.0823339 57.12714742 43.1875 53.5 C43.26894032 51.03120872 43.35160951 48.56245765 43.43554688 46.09375 C43.63792481 40.06289271 43.82491712 34.03170811 44 28 C43.18387238 27.87493073 42.36774475 27.74986145 41.52688599 27.6210022 C40.45212006 27.45039276 39.37735413 27.27978333 38.27001953 27.10400391 C37.20639191 26.93768463 36.14276428 26.77136536 35.04690552 26.6000061 C30.94503994 25.79225399 27.53970561 24.33718593 23.875 22.375 C23.19904785 22.02526123 22.5230957 21.67552246 21.82666016 21.31518555 C15.98041384 18.19248893 10.97378817 14.37090475 6 10 C4.79198818 9.10373316 3.58370249 8.20783518 2.375 7.3125 C0 5 0 5 -0.375 2.1875 C-0.25125 1.465625 -0.1275 0.74375 0 0 Z " fill="#EB4331" transform="translate(689,528)"/>
    <path d="M0 0 C7.00493383 0.35922738 12.29827895 4.1785495 17.02734375 9.1171875 C26.62776528 20.84878083 26.16337429 33.50997233 26.09765625 48.10546875 C26.0962413 49.3106868 26.09482635 50.51590485 26.09336853 51.75764465 C26.08781771 55.56762281 26.07527459 59.37753992 26.0625 63.1875 C26.05747864 65.78710852 26.05291685 68.38671797 26.04882812 70.98632812 C26.03786444 77.32423921 26.02117606 83.66211524 26 90 C24.515 89.505 24.515 89.505 23 89 C22.99120064 87.84940598 22.99120064 87.84940598 22.98222351 86.67556763 C22.92406138 79.40869455 22.85185257 72.1421552 22.76428509 64.87558174 C22.71976133 61.14070971 22.68046704 57.40594225 22.65356445 53.67089844 C22.62734998 50.05912515 22.58682354 46.44775823 22.53681374 42.83623886 C22.52026652 41.46575899 22.50867727 40.09520903 22.50238609 38.72464371 C22.44778142 27.91158993 21.98542258 18.03034032 14.25 9.828125 C9.97828842 6.35735934 5.02304363 4.17747704 0 2 C0 1.34 0 0.68 0 0 Z " fill="#EA4633" transform="translate(744,297)"/>
    <path d="M0 0 C0.66 0 1.32 0 2 0 C2 7.92 2 15.84 2 24 C44.9 24 87.8 24 132 24 C132 24.33 132 24.66 132 25 C114.95436566 25.1771492 97.90866397 25.3428309 80.86278725 25.49477577 C72.94850011 25.56559159 65.03428212 25.64019201 57.12011719 25.72363281 C50.2239667 25.79633094 43.32779168 25.86199872 36.43149412 25.91914403 C32.77829513 25.94966349 29.12520682 25.98375748 25.47212601 26.02626419 C21.39894327 26.07352765 17.3257867 26.10509762 13.25244141 26.13525391 C12.03468521 26.1517952 10.81692902 26.16833649 9.56227112 26.18537903 C8.45726761 26.19104385 7.3522641 26.19670868 6.21377563 26.20254517 C5.24958017 26.2117631 4.28538471 26.22098103 3.29197121 26.23047829 C1 26 1 26 -1 24 C-1.17437108 21.4169436 -1.23407158 18.95506577 -1.1875 16.375 C-1.18105469 15.653125 -1.17460937 14.93125 -1.16796875 14.1875 C-1.09872549 9.39240415 -0.78935314 4.73611881 0 0 Z " fill="#E84431" transform="translate(324,320)"/>
    <path d="M0 0 C0.99 0.33 1.98 0.66 3 1 C2.01 1.33 1.02 1.66 0 2 C0 2.66 0 3.32 0 4 C-7.75875604 9.77779705 -16.52230317 13.42038386 -26 15 C-26 31.83 -26 48.66 -26 66 C-28 65 -28 65 -28.61790466 63.24700928 C-29.03358978 60.80246674 -29.1199172 58.52787314 -29.11352539 56.04785156 C-29.11344986 55.06713684 -29.11337433 54.08642212 -29.11329651 53.07598877 C-29.10813522 52.02481873 -29.10297394 50.97364868 -29.09765625 49.890625 C-29.0962413 48.80867859 -29.09482635 47.72673218 -29.09336853 46.61199951 C-29.08777318 43.1579715 -29.0752215 39.70400841 -29.0625 36.25 C-29.0574844 33.90755302 -29.0529216 31.56510502 -29.04882812 29.22265625 C-29.03780528 23.4817487 -29.02107174 17.74087899 -29 12 C-27.38822876 11.63104614 -27.38822876 11.63104614 -25.74389648 11.25463867 C-24.3070094 10.91375203 -22.87024842 10.57233357 -21.43359375 10.23046875 C-20.72859741 10.07058472 -20.02360107 9.91070068 -19.29724121 9.74597168 C-12.41856263 8.08819628 -5.08967214 5.08967214 0 0 Z " fill="#EB4432" transform="translate(210,595)"/>
    <path d="M0 0 C0.33 0 0.66 0 1 0 C1.29720284 7.3271441 1.54386957 14.65479132 1.75683594 21.98486328 C1.83494977 24.47385412 1.92427517 26.96252105 2.02539062 29.45068359 C2.16944989 33.04496227 2.27201694 36.63850825 2.3671875 40.234375 C2.42002899 41.33174988 2.47287048 42.42912476 2.52731323 43.55975342 C2.70964176 53.00119638 -0.17946159 60.7424912 -6.52734375 67.81640625 C-7.32269531 68.39261719 -8.11804688 68.96882812 -8.9375 69.5625 C-9.73027344 70.16191406 -10.52304687 70.76132812 -11.33984375 71.37890625 C-14.47129148 73.28720406 -17.60098237 74.62788123 -21 76 C-21.13277344 74.92621094 -21.26554688 73.85242188 -21.40234375 72.74609375 C-21.58069564 71.30989167 -21.75908295 69.87369399 -21.9375 68.4375 C-22.02451172 67.73302734 -22.11152344 67.02855469 -22.20117188 66.30273438 C-22.75384491 61.86088073 -23.35394596 57.42925336 -24 53 C-22 54 -22 54 -21.18359375 55.78515625 C-19.51203904 60.88733632 -18.48629163 65.65079202 -18 71 C-9.84274463 67.30981305 -5.21630706 63.29642283 -2 55 C-1.08208167 51.90725402 -0.85049256 49.08557056 -0.79467773 45.86425781 C-0.77473251 44.84350159 -0.75478729 43.82274536 -0.73423767 42.77105713 C-0.70916893 41.12868073 -0.70916893 41.12868073 -0.68359375 39.453125 C-0.66281265 38.3267865 -0.64203156 37.200448 -0.62062073 36.03997803 C-0.55525667 32.44338051 -0.49630115 28.84671023 -0.4375 25.25 C-0.3943023 22.8111904 -0.3506876 20.37238816 -0.30664062 17.93359375 C-0.1995887 11.955806 -0.09779783 5.97794593 0 0 Z " fill="#E9432F" transform="translate(767,493)"/>
    <path d="M0 0 C10.75093097 1.66986537 19.01076638 10.87906216 25.6015625 18.96484375 C33.43680684 30.33315839 34.47832146 44.61332741 33 58 C31.9765625 61.09375 31.9765625 61.09375 31 63 C30.67 63 30.34 63 30 63 C30.0314209 61.95827637 30.0314209 61.95827637 30.06347656 60.89550781 C30.59654839 40.56455325 29.61538859 27.13974783 15.1875 11.75 C11.50754359 8.1854932 7.48648699 5.67658373 3.00390625 3.2265625 C1 2 1 2 0 0 Z " fill="#EA4331" transform="translate(197,511)"/>
    <path d="M0 0 C2 1 2 1 3.1171875 3.94140625 C4.33083978 8.5881982 4.21934032 13.16605684 4.125 17.9375 C4.11597656 18.81212891 4.10695313 19.68675781 4.09765625 20.58789062 C4.0742957 22.72538064 4.03843247 24.86272786 4 27 C8.00044103 24.80311512 11.54649699 22.77598285 14.875 19.625 C18.89100028 16.00825121 23.11971403 12.38720103 28 10 C28.99 10.33 29.98 10.66 31 11 C28.5688727 13.68150919 25.90216689 15.38486963 22.8125 17.25 C16.45002891 21.24230353 10.85855825 25.57559357 6.125 31.4375 C5.073125 32.7059375 5.073125 32.7059375 4 34 C3.34 34 2.68 34 2 34 C2.03480469 32.60201172 2.03480469 32.60201172 2.0703125 31.17578125 C2.1782783 23.54876835 1.83381867 16.43664658 0.4375 8.90234375 C-0.01625968 5.89213447 -0.072261 3.03947818 0 0 Z " fill="#EB4330" transform="translate(701,445)"/>
    <path d="M0 0 C2.38801829 2.38801829 3.04361066 4.41382382 4.25 7.5625 C10.24810412 22.18178584 18.74150283 29.51238379 33 36 C33 36.99 33 37.98 33 39 C23.08160089 36.16617168 12.63183847 28.76689522 7 20 C6.328125 17.76953125 6.328125 17.76953125 6 16 C5.34 16 4.68 16 4 16 C-0.59225513 5.62642369 -0.59225513 5.62642369 0 0 Z " fill="#EA432F" transform="translate(635,567)"/>
    <path d="M0 0 C1.14109582 3.42328747 0.84733551 4.06602175 -0.375 7.3125 C-2.89263724 14.05365017 -3.23549366 20.7559111 -3.5625 27.875 C-3.60568359 28.75414062 -3.64886719 29.63328125 -3.69335938 30.5390625 C-3.79869339 32.69255797 -3.89977649 34.84626064 -4 37 C-8.84984172 29.72523742 -7.16609606 21.14727354 -5.70703125 12.94921875 C-4.67630393 8.64977608 -3.22147493 3.22147493 0 0 Z " fill="#EA4431" transform="translate(687,533)"/>
    <path d="M0 0 C6.48167569 -1.02342248 10.92056417 2.43158962 16 6 C21.21345373 10.38404063 25.83214663 16.49643989 28 23 C28.03954234 25.33299825 28.04401732 27.66708189 28 30 C26.2209027 27.33135405 25.22996713 25.15995289 24.125 22.1875 C20.34821365 12.74553413 14.89217284 7.1469085 5.5703125 2.890625 C3.73569759 2.19856386 1.87031341 1.58880237 0 1 C0 0.67 0 0.34 0 0 Z " fill="#EB3F2D" transform="translate(705,367)"/>
    <path d="M0 0 C2.62214303 1.31107151 3.28063573 2.98045319 4.35791016 5.63330078 C5.75139111 10.7695762 5.58649452 16.14769882 5.6875 21.4375 C5.72166016 22.64599609 5.75582031 23.85449219 5.79101562 25.09960938 C5.87309213 28.06608875 5.93823246 31.03302828 6 34 C9.63 34.33 13.26 34.66 17 35 C17 35.33 17 35.66 17 36 C12.05 36 7.1 36 2 36 C2.09539063 34.75605469 2.19078125 33.51210938 2.2890625 32.23046875 C2.91914777 23.14536964 3.23566462 14.91072041 1 6 C0.66117344 4.00092329 0.32455828 2.00144274 0 0 Z " fill="#EB4431" transform="translate(691,594)"/>
    <path d="M0 0 C0.58007812 0.22042969 1.16015625 0.44085938 1.7578125 0.66796875 C0.4584375 1.44140625 0.4584375 1.44140625 -0.8671875 2.23046875 C-6.56833714 6.04471308 -10.70421646 11.31578981 -13.2421875 17.66796875 C-13.7265469 21.12256458 -13.84269511 24.55830205 -13.9296875 28.04296875 C-13.96384766 28.96980469 -13.99800781 29.89664062 -14.03320312 30.8515625 C-14.11518302 33.12357687 -14.18449244 35.39522979 -14.2421875 37.66796875 C-14.5721875 37.66796875 -14.9021875 37.66796875 -15.2421875 37.66796875 C-17.68654914 16.42424394 -17.68654914 16.42424394 -10.2421875 6.66796875 C-3.85752594 -0.57123642 -3.85752594 -0.57123642 0 0 Z " fill="#EA4430" transform="translate(271.2421875,370.33203125)"/>
    <path d="M0 0 C0.33 0 0.66 0 1 0 C0.3616813 10.33533038 -0.30232659 20.66849591 -1 31 C-3.41141991 28.58858009 -3.25605507 28.00504519 -3.265625 24.7109375 C-3.26820313 23.85113281 -3.27078125 22.99132812 -3.2734375 22.10546875 C-3.26570312 21.20441406 -3.25796875 20.30335938 -3.25 19.375 C-3.25773438 18.49714844 -3.26546875 17.61929687 -3.2734375 16.71484375 C-3.2333737 3.2333737 -3.2333737 3.2333737 0 0 Z " fill="#EB4532" transform="translate(736,488)"/>
    <path d="M0 0 C8.40232449 3.83331855 15.02497395 10.33222058 20 18 C20.61875 18.94875 21.2375 19.8975 21.875 20.875 C23 23 23 23 23 25 C19.15589417 23.71863139 18.84782356 22.40185441 16.875 18.9375 C12.88153071 12.41737711 7.95938332 7.78042753 1.73046875 3.40625 C1.15941406 2.9421875 0.58835937 2.478125 0 2 C0 1.34 0 0.68 0 0 Z " fill="#EA4330" transform="translate(678,419)"/>
    <path d="M0 0 C3.42095632 1.63485702 6.05341729 3.60161873 9 6 C11.31542353 7.69315346 13.65643141 9.34571629 16 11 C15.01 11.33 14.02 11.66 13 12 C10.84375 10.8203125 10.84375 10.8203125 8.5 9.125 C5.90842392 7.26770381 4.04550286 6.01516762 1 5 C-1.34058637 7.12780579 -2.70700306 9.11562221 -4 12 C-4.65234375 10.265625 -4.65234375 10.265625 -5 8 C-4.00390625 5.859375 -4.00390625 5.859375 -2.5625 3.75 C-2.08941406 3.04359375 -1.61632812 2.3371875 -1.12890625 1.609375 C-0.75636719 1.07828125 -0.38382813 0.5471875 0 0 Z " fill="#E9422F" transform="translate(743,471)"/>
    <path d="M0 0 C0.33 0.99 0.66 1.98 1 3 C0.05123442 4.86364668 -0.90198857 6.72517387 -1.87890625 8.57421875 C-5.70740985 16.85819344 -6.53692085 25.9939089 -7 35 C-7.33 35 -7.66 35 -8 35 C-9.19518149 9.84806947 -9.19518149 9.84806947 -1.33203125 1.15625 C-0.89246094 0.7746875 -0.45289063 0.393125 0 0 Z " fill="#EA402E" transform="translate(642,530)"/>
    <path d="M0 0 C2.24547799 2.12659974 3.99169022 4.33631678 5.75 6.875 C10.68390837 13.4981036 16.26991569 16.42330523 24 19 C24 19.33 24 19.66 24 20 C18.4622765 20.87437739 14.99646713 18.72990961 10.4765625 15.85546875 C5.90818733 12.4327902 1.82620995 8.47862986 0 3 C0 2.01 0 1.02 0 0 Z " fill="#E94230" transform="translate(184,662)"/>
    <path d="M0 0 C2.82587712 2.39843352 3.70189138 4.52160978 4.6875 8.0625 C4.93886719 8.94035156 5.19023438 9.81820313 5.44921875 10.72265625 C6 13 6 13 6 15 C8.64 14.01 11.28 13.02 14 12 C14 12.99 14 13.98 14 15 C8.25 18 8.25 18 6 18 C5.67 18.66 5.34 19.32 5 20 C4.16169027 17.23058394 3.32917966 14.45964931 2.5 11.6875 C2.26152344 10.90181641 2.02304687 10.11613281 1.77734375 9.30664062 C1.55175781 8.54931641 1.32617188 7.79199219 1.09375 7.01171875 C0.88427734 6.31522217 0.67480469 5.61872559 0.45898438 4.90112305 C0 3 0 3 0 0 Z " fill="#EA4632" transform="translate(751,375)"/>
    <path d="M0 0 C0 0.66 0 1.32 0 2 C-0.53367187 2.25652344 -1.06734375 2.51304687 -1.6171875 2.77734375 C-7.55461078 5.82823426 -12.12291897 9.59209597 -16.93359375 14.20703125 C-19 16 -19 16 -21 16 C-18.022186 8.69082018 -7.97104547 0 0 0 Z " fill="#E9432F" transform="translate(665,512)"/>
    <path d="M0 0 C2.14616141 3.21924212 2.65765409 5.42925954 3.4375 9.1875 C4.57226651 14.3634248 5.98480203 19.10594778 8 24 C5 23 5 23 3.8671875 20.85546875 C3.37605469 19.53482422 3.37605469 19.53482422 2.875 18.1875 C2.54242187 17.31480469 2.20984375 16.44210937 1.8671875 15.54296875 C0.53118073 11.62521918 -0.12356729 8.40257569 -0.0625 4.25 C-0.05347656 3.45078125 -0.04445313 2.6515625 -0.03515625 1.828125 C-0.02355469 1.22484375 -0.01195312 0.6215625 0 0 Z " fill="#EA402E" transform="translate(735,520)"/>
    <path d="M0 0 C4.61430956 1.39654325 6.71172972 3.57889348 9.6875 7.3125 C10.45449219 8.25738281 11.22148438 9.20226562 12.01171875 10.17578125 C13.83032431 12.75898718 14.9865676 15.0247359 16 18 C12.55831047 16.85277016 12.03140325 15.71875364 10.171875 12.7578125 C7.35445004 8.53167506 4.22831503 4.81887669 0 2 C0 1.34 0 0.68 0 0 Z " fill="#E94330" transform="translate(735,356)"/>
    <path d="M0 0 C0.33 0 0.66 0 1 0 C1.85896885 5.58329751 -0.29012468 8.57356382 -3.3984375 12.94140625 C-5.11530311 15.14820668 -6.9041103 17.14594373 -9 19 C-9.99 18.67 -10.98 18.34 -12 18 C-10.625 16.5 -10.625 16.5 -9 15 C-8.34 15 -7.68 15 -7 15 C-6.71253906 14.42378906 -6.42507813 13.84757813 -6.12890625 13.25390625 C-5.41176327 11.82210175 -4.69083993 10.39217964 -3.96484375 8.96484375 C-3.62582031 8.29582031 -3.28679688 7.62679687 -2.9375 6.9375 C-2.59589844 6.26589844 -2.25429688 5.59429688 -1.90234375 4.90234375 C-0.88509619 2.85671686 -0.88509619 2.85671686 0 0 Z " fill="#EB412D" transform="translate(679,658)"/>
    <path d="M0 0 C7.39974141 0.67270376 15.31124605 1.8059203 21 7 C14.11921989 6.35992743 7.44379546 4.47479101 1 2 C0.67 1.34 0.34 0.68 0 0 Z " fill="#EC4430" transform="translate(709,345)"/>
    <path d="M0 0 C2.18073757 2.18073757 2.60470603 3.4173918 3.5 6.3125 C4.54560175 9.60322631 5.66352271 12.81301569 7 16 C6.01 16 5.02 16 4 16 C-0.59225513 5.62642369 -0.59225513 5.62642369 0 0 Z " fill="#E94230" transform="translate(684,576)"/>
    <path d="M0 0 C0.66 0 1.32 0 2 0 C1.36720612 3.12881416 0.30288588 5.47746008 -1.375 8.1875 C-1.79523438 8.88230469 -2.21546875 9.57710937 -2.6484375 10.29296875 C-4 12 -4 12 -7 13 C-6.35952602 9.55251042 -5.00294981 7.15355815 -3.0625 4.25 C-2.53785156 3.45078125 -2.01320312 2.6515625 -1.47265625 1.828125 C-0.74369141 0.92320312 -0.74369141 0.92320312 0 0 Z " fill="#EC4430" transform="translate(222,580)"/>
    <path d="M0 0 C0.99 0.33 1.98 0.66 3 1 C2.01 4.3 1.02 7.6 0 11 C-0.66 10.67 -1.32 10.34 -2 10 C-1.125 2.25 -1.125 2.25 0 0 Z " fill="#E94532" transform="translate(184,450)"/>
    <path d="M0 0 C1.45880109 0.14107747 2.91703551 0.28802415 4.375 0.4375 C5.59316406 0.55931641 5.59316406 0.55931641 6.8359375 0.68359375 C9 1 9 1 11 2 C11 2.66 11 3.32 11 4 C2.83035714 3.33035714 2.83035714 3.33035714 0 0 Z " fill="#EC4330" transform="translate(669,605)"/>
    <path d="M0 0 C2.13586678 3.20380017 2.23132175 4.01939967 2.125 7.6875 C2.10695313 8.49574219 2.08890625 9.30398438 2.0703125 10.13671875 C2.03550781 11.05904297 2.03550781 11.05904297 2 12 C0.35 12 -1.3 12 -3 12 C-2.34 11.34 -1.68 10.68 -1 10 C-0.53837573 7.56747339 -0.53837573 7.56747339 -0.375 4.875 C-0.30023437 3.96492188 -0.22546875 3.05484375 -0.1484375 2.1171875 C-0.09945312 1.41851562 -0.05046875 0.71984375 0 0 Z " fill="#EB3A29" transform="translate(680,496)"/>
    <path d="M0 0 C0.66 0.33 1.32 0.66 2 1 C1.360625 1.886875 0.72125 2.77375 0.0625 3.6875 C-1.80829757 6.69211428 -2.59423966 8.5510371 -3 12 C-3.66 12 -4.32 12 -5 12 C-4.58525633 6.71201818 -3.64775386 3.88309282 0 0 Z " fill="#EB3E2C" transform="translate(331,307)"/>
    <path d="M0 0 C1.32 0.33 2.64 0.66 4 1 C1.69 2.65 -0.62 4.3 -3 6 C-3.66 5.67 -4.32 5.34 -5 5 C-2.75 2.4375 -2.75 2.4375 0 0 Z " fill="#EA402C" transform="translate(340,299)"/>
    <path d="" fill="#E35B47" transform="translate(0,0)"/>
    <path d="" fill="#EA5846" transform="translate(0,0)"/>
    <path d="" fill="#5E504D" transform="translate(0,0)"/>
    <path d="" fill="#E85B45" transform="translate(0,0)"/>
    <path d="" fill="#EC5742" transform="translate(0,0)"/>
    <path d="" fill="#ED5641" transform="translate(0,0)"/>
    <path d="" fill="#EE5741" transform="translate(0,0)"/>
    <path d="" fill="#EC5641" transform="translate(0,0)"/>
    <path d="" fill="#ED5942" transform="translate(0,0)"/>
    <path d="" fill="#EC5942" transform="translate(0,0)"/>
    <path d="" fill="#ED5641" transform="translate(0,0)"/>
    <path d="" fill="#EC5840" transform="translate(0,0)"/>
    <path d="" fill="#EC5741" transform="translate(0,0)"/>
    <path d="" fill="#ED5441" transform="translate(0,0)"/>
    <path d="" fill="#EC5942" transform="translate(0,0)"/>
    <path d="" fill="#EC5641" transform="translate(0,0)"/>
    <path d="" fill="#EB5943" transform="translate(0,0)"/>
    <path d="" fill="#ED5540" transform="translate(0,0)"/>
    <path d="" fill="#EC5841" transform="translate(0,0)"/>
    <path d="" fill="#EC5641" transform="translate(0,0)"/>
    <path d="" fill="#EC553F" transform="translate(0,0)"/>
    <path d="" fill="#ED5843" transform="translate(0,0)"/>
    <path d="" fill="#EC5843" transform="translate(0,0)"/>
    <path d="" fill="#EC5542" transform="translate(0,0)"/>
    <path d="" fill="#E55844" transform="translate(0,0)"/>
    <path d="" fill="#E15D49" transform="translate(0,0)"/>
    <path d="" fill="#DF5D49" transform="translate(0,0)"/>
    <path d="" fill="#D95E4B" transform="translate(0,0)"/>
    <path d="" fill="#E05B49" transform="translate(0,0)"/>
    <path d="" fill="#E05C49" transform="translate(0,0)"/>
    <path d="" fill="#E15D48" transform="translate(0,0)"/>
    <path d="" fill="#E85E45" transform="translate(0,0)"/>
    <path d="" fill="#E35C47" transform="translate(0,0)"/>
    <path d="" fill="#E25E46" transform="translate(0,0)"/>
    <path d="" fill="#EA5945" transform="translate(0,0)"/>
    <path d="" fill="#E15C47" transform="translate(0,0)"/>
    <path d="" fill="#E75A43" transform="translate(0,0)"/>
    <path d="" fill="#EB5945" transform="translate(0,0)"/>
    <path d="" fill="#EA5845" transform="translate(0,0)"/>
    <path d="" fill="#E65C46" transform="translate(0,0)"/>
    <path d="" fill="#E95A48" transform="translate(0,0)"/>
    <path d="" fill="#EB5846" transform="translate(0,0)"/>
    <path d="" fill="#E95845" transform="translate(0,0)"/>
    <path d="" fill="#E75D45" transform="translate(0,0)"/>
    <path d="" fill="#E95845" transform="translate(0,0)"/>
    <path d="" fill="#E95945" transform="translate(0,0)"/>
    <path d="" fill="#E85A44" transform="translate(0,0)"/>
    <path d="" fill="#ED5845" transform="translate(0,0)"/>
    <path d="" fill="#EA5944" transform="translate(0,0)"/>
    <path d="" fill="#EB5A47" transform="translate(0,0)"/>
    <path d="" fill="#E35D47" transform="translate(0,0)"/>
    <path d="" fill="#ED5A46" transform="translate(0,0)"/>
    <path d="" fill="#DE5D4A" transform="translate(0,0)"/>
    <path d="" fill="#DB5E4C" transform="translate(0,0)"/>
    <path d="" fill="#EB5A45" transform="translate(0,0)"/>
    <path d="" fill="#E5614B" transform="translate(0,0)"/>
    <path d="" fill="#E85C46" transform="translate(0,0)"/>
    <path d="" fill="#EC5C47" transform="translate(0,0)"/>
    <path d="" fill="#EC5B48" transform="translate(0,0)"/>
    <path d="" fill="#EA5A44" transform="translate(0,0)"/>
    <path d="" fill="#E95B47" transform="translate(0,0)"/>
    <path d="" fill="#EB5D48" transform="translate(0,0)"/>
    <path d="" fill="#F05A43" transform="translate(0,0)"/>
    <path d="" fill="#EE5746" transform="translate(0,0)"/>
    <path d="" fill="#E95947" transform="translate(0,0)"/>
    <path d="" fill="#DC5A48" transform="translate(0,0)"/>
  </g>
</svg>